<?xml version="1.0" encoding="UTF-8"?>
<svg width="70px" height="22px" viewBox="0 0 70 22" version="1.1" xmlns="http://www.w3.org/2000/svg" xmlns:xlink="http://www.w3.org/1999/xlink">
    <title>Shape</title>
    <g id="Page-1" stroke="none" stroke-width="1" fill="none" fill-rule="evenodd">
        <path d="M67.6019975,15.8367971 C66.9125279,16.3842715 66.1547841,16.8382564 65.3481509,17.1871379 C64.8603981,19.8608127 63.4373393,21.9997526 60.5108227,21.9997526 C60.2739746,22.0030181 60.0377786,21.9739466 59.8086731,21.9133308 C58.9832453,21.656766 58.0264995,20.3955477 58.0264995,19.5394316 C58.0264995,18.1240212 61.3916764,17.6970762 62.9713037,16.915535 L63.118424,16.83875 L63.3328208,15.9826339 C62.6575879,16.4704259 61.8507178,16.7389496 61.0200151,16.7523282 C59.9956963,16.7162638 59.1399702,15.9546412 58.9778854,14.9347694 C58.3802998,15.2843286 57.6989412,15.461824 57.0081146,15.4478989 C56.6091076,15.4441164 56.211443,15.4006954 55.8208922,15.3182662 C54.823947,16.4093416 53.8055621,17.2438522 52.5540206,17.2438522 C51.7473526,17.2438522 49.965179,15.6612528 49.7936616,14.9995858 C49.7722219,14.9158647 49.7588221,14.8240415 49.7427423,14.7295176 C48.7377572,15.8611032 47.3656176,17.0331991 46.1864351,17.0331991 C45.3583274,17.0331991 43.9593881,15.8773073 43.9593881,14.8510483 C43.9593881,14.2003126 45.1334659,11.9377416 45.666622,10.9118675 L45.7415617,10.7676177 L45.042092,10.832434 C44.6883373,11.3644683 43.3483572,13.5736259 42.5443691,14.1812793 C42.2639436,14.5216666 41.9641789,14.8453909 41.6465824,15.150824 C40.5745983,16.177083 39.3096571,16.7982398 38.1626341,16.7982398 C37.3238065,16.7982398 35.7667496,16.0933618 35.3057964,15.3857833 C34.3088512,16.2500014 33.1537883,16.9035663 31.9478062,16.9035663 C31.6230674,16.9058387 31.3000626,16.8556913 30.9910604,16.7550288 C30.4899078,16.5848859 29.9137164,15.8043889 29.5894412,15.1346199 C28.5335369,16.117668 27.2793155,16.8927636 25.963455,16.8927636 C25.6395803,16.8952144 25.3174295,16.8450591 25.0093891,16.7442261 C24.4546373,16.5551784 23.8114469,15.6369467 23.5166513,14.9347694 C22.5491856,15.8908107 21.2252852,16.7658316 19.9147847,16.7658316 C19.3332333,16.7658316 18.7168424,16.7442261 18.0388125,15.8232937 C17.4224216,16.295913 16.5326748,16.7658316 15.6831274,16.7658316 C15.4151314,16.7658316 13.5391592,16.5740832 13.5391592,14.5188645 C13.5391592,13.0658977 16.6157536,8.96086166 17.2455443,8.61517441 C17.3459711,8.5706581 17.4547612,8.54854759 17.5644595,8.55035805 C18.2183698,8.55035805 19.1724357,9.36326322 19.1724357,9.87639273 C19.1724357,10.2274813 17.4331415,12.5932785 16.85963,13.4682993 C16.4576359,14.0678506 16.0958413,14.6674019 16.0958413,15.0103885 C16.0921892,15.0700425 16.1126193,15.1286514 16.1524896,15.1728987 C16.1923599,15.217146 16.248285,15.2432746 16.3075582,15.2453478 C16.7551115,15.2453478 17.5108603,14.624191 19.3868325,11.5238085 C19.9147847,10.6487877 21.0644876,8.55305873 21.6996382,8.55305873 C22.3347888,8.55305873 23.331734,9.40917481 23.331734,9.87909341 C23.331734,10.2004745 21.6138795,12.5311628 21.0189283,13.471 C20.566015,14.1785786 20.298019,14.7970347 20.298019,15.1184158 C20.2885829,15.2062235 20.3191371,15.2936107 20.3811103,15.3560631 C20.4430836,15.4185155 20.5298003,15.4493059 20.6169343,15.4397969 C21.2869243,15.4397969 22.7796622,14.0327418 23.5836503,12.9929793 C24.6207949,9.38486867 28.8015329,2.56564755 30.9455011,2.57645028 C31.623531,2.57645028 32.6204763,3.51898817 32.6204763,4.31028789 C32.6204763,4.97195489 31.762889,6.88673816 30.3291102,8.45853487 C28.8953315,10.0303316 27.9117861,10.7028013 27.0193593,11.1106042 C26.4833673,12.3070062 25.9473752,13.7815784 25.9473752,14.5296672 C25.9473752,14.9590756 26.1805318,15.1292185 26.6682845,15.1292185 C27.2337561,15.1292185 28.1476226,14.7862319 29.0802488,13.9760274 C29.2185003,13.8450891 29.349142,13.7062234 29.4715229,13.5601225 C30.1736725,10.1572636 34.7001254,2.57645028 36.9110926,2.57645028 C37.5891226,2.57645028 38.5860678,3.51898817 38.5860678,4.31028789 C38.5860678,4.97195489 37.7284805,6.88673816 36.2947018,8.45853487 C34.860923,10.0303316 33.8746977,10.7028013 32.9849508,11.1106042 C32.4489588,12.3070062 31.9129667,13.7815784 31.9129667,14.5296672 C31.9129667,14.9590756 32.1461233,15.1292185 32.6338761,15.1292185 C33.1616496,15.1292185 33.9905791,14.8304391 34.8591959,14.1318756 L35.0458403,13.9760274 L35.0806798,13.9409186 C35.2227177,11.0511892 38.0420359,8.35050761 39.8831685,8.35050761 C39.987687,8.35050761 40.0734457,8.37211306 40.1806441,8.37211306 C40.7434358,8.45853487 42.0566163,9.42267822 42.0566163,10.2328827 C41.9520979,11.7506658 40.3602015,13.5466191 39.3632563,13.5466191 C38.9398225,13.5466191 38.1947936,13.2063332 37.7284805,12.9065575 C37.528645,13.3575143 37.4202184,13.8441568 37.4095652,14.3379188 C37.4095652,15.1076131 37.7499202,15.3641778 38.5351485,15.3641778 C39.585693,15.3641778 40.7112763,14.5701774 41.9628177,13.0388909 C42.6247679,12.1287612 43.3751568,11.2726451 43.8602296,10.2544882 C43.5976655,9.91197896 43.4561782,9.49088912 43.4582355,9.0580862 C43.4582355,8.48014033 43.8816693,7.53760244 44.8357351,7.53760244 C45.1787817,7.53510097 45.5078728,7.67431115 45.7463651,7.92281172 C45.9848574,8.17131229 46.1119328,8.50741172 46.0979964,8.85283439 C46.092425,9.01991782 46.0635559,9.18538061 46.0122377,9.34435845 C46.7545866,9.17151482 47.3066585,8.36131033 47.7729715,8.36131033 C48.4938809,8.36131033 48.9816336,9.81697773 48.9816336,10.6055768 C48.9966929,10.7538428 48.9677811,10.9032792 48.8985549,11.0349852 C48.5019207,11.5481147 46.4865906,14.0921568 46.4865906,15.1400212 C46.4776811,15.2486927 46.5138264,15.3562304 46.5864359,15.4370767 C46.6590454,15.5179229 46.7616358,15.5648586 46.8698249,15.5667289 C47.3200583,15.5667289 47.9766485,14.8402456 48.2098051,14.6052863 C48.8127961,13.9814288 49.4184671,13.165823 49.8847802,12.7445166 C50.8361661,8.79612008 55.2125412,3.09498115 57.0590338,2.52513733 C57.4422682,2.52513733 59.0100449,3.01666138 59.0100449,3.72153929 C59.0057245,3.87723378 58.9268176,4.02116965 58.798328,4.10773676 C57.3136301,5.26092782 51.7339528,11.7182576 51.7339528,14.5836808 C51.7339528,15.0049872 51.8625909,15.5451235 52.2860246,15.5451235 C52.7094583,15.5451235 53.3874883,14.8834565 54.2584754,13.9652247 C53.8188253,13.5337984 53.5795533,12.9358941 53.5992051,12.3178089 C53.5992051,10.1572636 55.1911015,8.59626964 56.3970837,8.59626964 C56.8848364,8.59626964 58.4124138,9.70895047 58.4124138,10.6703931 C58.4124138,11.4149284 58.0925111,12.5521323 56.9946894,13.925856 L56.8044376,14.1569731 L56.8687567,14.1785786 C56.9228797,14.1977599 56.9804315,14.2051246 57.0375942,14.200184 C57.8505154,14.200184 58.7544839,13.6590875 59.3725486,12.9435853 L59.5004776,12.7877275 L59.546037,12.7391153 C60.4438236,10.8999511 62.0973591,8.55305873 62.7030301,8.55305873 C63.255102,8.55305873 64.2091678,9.17421551 64.2091678,9.77376683 C64.2091678,10.3301072 61.4729284,13.300857 61.4729284,14.861851 C61.4571005,14.9626 61.4900873,15.0648963 61.5616615,15.1370239 C61.6332356,15.2091515 61.734747,15.2423933 61.834723,15.226443 C62.4913133,15.226443 63.6785357,14.3487215 64.0188906,13.7923811 C64.149237,13.5176314 64.2559339,13.2321111 64.3378059,12.9389657 C64.5398569,12.390638 64.7780096,11.8565157 65.0506753,11.3401622 C65.2704321,10.9107538 66.3316963,8.85823576 66.9266475,8.85823576 C67.4144003,8.85823576 68.6230623,9.24443323 68.6230623,9.84128387 C68.6230623,10.0573384 66.693491,12.8147343 66.0342207,14.2893065 C65.8368897,14.6859171 65.7159436,15.1166253 65.677786,15.5586269 C65.677786,15.6666542 65.6992257,15.6882596 65.7823045,15.6882596 C66.2459376,15.6882596 67.7976346,14.200184 68.6981012,13.0956052 C69.399101,11.8219615 70.017871,13.0964313 69.4673208,14.3379188 C69.163329,15.0234186 67.6754062,15.9559278 67.6019975,15.8367971 Z M62.9603063,18.2836147 C62.5368726,18.518574 59.9051516,19.2882682 59.9051516,19.8013977 C59.9051516,20.1875952 60.4116641,20.4009491 60.7091397,20.4009491 C61.7275246,20.4009491 62.4913133,19.3530846 62.9603063,18.2836147 Z M10.183849,0 C12.3921362,0 14.4717854,0.383496792 15.171255,0.726483359 C15.8707246,1.06946993 17.400982,3.16519887 17.400982,4.19145789 C17.400982,4.25357357 17.3795423,4.31838993 17.3795423,4.36160084 C16.8060308,6.80031635 13.147885,8.48824237 10.7359208,8.74480713 C12.477895,9.6009232 13.3676418,10.883747 13.3783616,12.2097817 C13.3493349,13.0940485 13.002688,13.9376161 12.4028561,14.5836808 C11.2772728,15.88811 8.22211807,16.8711582 6.16390859,16.8711582 C5.6310329,16.9045794 5.0985715,16.7994956 4.61757152,16.5659811 C3.51074794,15.9232189 2.85683763,14.2352929 2.70675986,13.8085852 C1.93225135,15.4100894 1.63477576,16.2229946 1.63477576,16.609192 C1.64458422,16.7813721 1.66517154,16.9527563 1.69641484,17.1223216 C1.69641484,17.2087434 1.61333607,17.2276481 1.54901703,17.2276481 C0.911186487,17.2276481 0,15.9448244 0,15.3695792 C0,14.5476326 1.44909099,11.0302373 3.11485082,7.4607031 L3.40230217,6.84876542 L3.69261871,6.23876552 C4.03245616,5.52938017 4.37532642,4.82999297 4.71137013,4.1617504 C4.01726043,4.27517902 3.80554357,4.21846471 3.69834516,4.18065517 C2.97475589,3.910587 0.769148594,2.60615778 0.769148594,1.7500417 C0.769148594,1.10998015 3.69298523,0.596850641 6.81245897,0.234959302 C7.8635676,0.114707899 7.9188891,0.108378878 9.43029292,0.0161934587 L9.69609621,0 L10.183849,0 Z M5.43227944,8.70699758 C4.71137013,10.0276309 3.99046082,11.3320601 3.39550965,12.4879519 C3.62866619,13.0226868 4.64705109,15.0103885 5.87715284,15.0103885 C7.63788673,15.0103885 10.451845,12.6148839 10.451845,11.0971008 C10.4565842,10.8910507 10.3923953,10.6893853 10.2696077,10.5245563 C9.48437935,9.4550864 6.57930243,8.7934194 5.43227944,8.70699758 Z M56.7186789,10.2004745 C56.2738055,10.2004745 55.0008244,11.1403117 55.0008244,12.4663464 C54.9883022,12.6495617 55.0405164,12.8313326 55.1482222,12.9794759 C56.0835283,11.8046794 56.8901963,10.6271822 56.8901963,10.3085018 C56.8932708,10.2847283 56.8853709,10.2608453 56.8687567,10.2436854 C56.8231913,10.2166547 56.7715373,10.2017823 56.7186789,10.2004745 Z M39.9769672,10.0924473 C39.7438106,10.0924473 39.0229013,10.713604 38.366311,11.7182576 C38.5423298,11.8393473 38.7462776,11.9128154 38.9585823,11.9316115 C39.4061356,11.9316115 40.0841656,10.6487877 40.0841656,10.2436854 C40.0869509,10.196525 40.0715936,10.1500969 40.0412862,10.1140527 C40.0198465,10.1140527 39.9984068,10.0924473 39.9769672,10.0924473 Z M30.9615809,5.00436307 C30.4705738,5.00436307 29.1696822,7.1715464 28.2027122,8.95603766 L28.097,9.151 L28.2726899,9.01042737 C29.6777478,7.84101501 30.9990183,5.93212972 31.1024718,5.25286711 L31.1089787,5.17450601 C31.114328,5.11713932 31.0900321,5.06103092 31.0446596,5.02596852 C31.0232199,5.02596852 31.0017803,5.00436307 30.9615809,5.00436307 Z M36.9432521,5.00436307 C36.4645558,5.00436307 35.1514199,7.17708552 34.1809848,8.96287291 L34.079,9.151 L34.2546587,9.01042737 C35.6620038,7.84101501 36.9833657,5.93212972 37.0868229,5.25286711 L37.0933299,5.17450601 C37.0986792,5.11713932 37.0743834,5.06103092 37.0290109,5.02596852 C37.0075712,5.02596852 36.9861315,5.00436307 36.9432521,5.00436307 Z M9.84885395,3.48387931 C9.40130058,3.48387931 8.95374722,3.48387931 8.50887382,3.52709021 C7.87372324,4.53174378 7.1072546,5.77405733 6.35418577,7.09739133 C7.88761145,7.05318389 9.41327076,6.86054974 10.9101182,6.52214614 C12.7242452,6.06770452 14.3847501,4.98403604 14.5097976,4.38755741 L14.5173447,4.31838993 L14.5173447,4.23196812 C14.4047864,3.84847133 12.3519368,3.48387931 9.84885395,3.48387931 Z" id="Shape" fill="#FFFFFF"></path>
    </g>
</svg>