<?xml version="1.0" encoding="UTF-8"?>
<svg width="18px" height="18px" viewBox="0 0 18 18" version="1.1" xmlns="http://www.w3.org/2000/svg" xmlns:xlink="http://www.w3.org/1999/xlink">
    <title>Shape</title>
    <g id="Page-1" stroke="none" stroke-width="1" fill="none" fill-rule="evenodd">
        <path d="M10.183849,0 C12.3921362,0 14.4717854,0.383496792 15.171255,0.726483359 C15.8707246,1.06946993 17.400982,3.16519887 17.400982,4.19145789 C17.400982,4.25357357 17.3795423,4.31838993 17.3795423,4.36160084 C16.8060308,6.80031635 13.147885,8.48824237 10.7359208,8.74480713 C12.477895,9.6009232 13.3676418,10.883747 13.3783616,12.2097817 C13.3493349,13.0940485 13.002688,13.9376161 12.4028561,14.5836808 C11.2772728,15.88811 8.22211807,16.8711582 6.16390859,16.8711582 C5.6310329,16.9045794 5.0985715,16.7994956 4.61757152,16.5659811 C3.51074794,15.9232189 2.85683763,14.2352929 2.70675986,13.8085852 C1.93225135,15.4100894 1.63477576,16.2229946 1.63477576,16.609192 C1.64458422,16.7813721 1.66517154,16.9527563 1.69641484,17.1223216 C1.69641484,17.2087434 1.61333607,17.2276481 1.54901703,17.2276481 C0.911186487,17.2276481 0,15.9448244 0,15.3695792 C0,14.5476326 1.44909099,11.0302373 3.11485082,7.4607031 L3.40230217,6.84876542 L3.69261871,6.23876552 C4.03245616,5.52938017 4.37532642,4.82999297 4.71137013,4.1617504 C4.01726043,4.27517902 3.80554357,4.21846471 3.69834516,4.18065517 C2.97475589,3.910587 0.769148594,2.60615778 0.769148594,1.7500417 C0.769148594,1.10998015 3.69298523,0.596850641 6.81245897,0.234959302 C7.8635676,0.114707899 7.9188891,0.108378878 9.43029292,0.0161934587 L9.69609621,0 L10.183849,0 Z M5.43227944,8.70699758 C4.71137013,10.0276309 3.99046082,11.3320601 3.39550965,12.4879519 C3.62866619,13.0226868 4.64705109,15.0103885 5.87715284,15.0103885 C7.63788673,15.0103885 10.451845,12.6148839 10.451845,11.0971008 C10.4565842,10.8910507 10.3923953,10.6893853 10.2696077,10.5245563 C9.48437935,9.4550864 6.57930243,8.7934194 5.43227944,8.70699758 Z M9.84885395,3.48387931 C9.40130058,3.48387931 8.95374722,3.48387931 8.50887382,3.52709021 C7.87372324,4.53174378 7.1072546,5.77405733 6.35418577,7.09739133 C7.88761145,7.05318389 9.41327076,6.86054974 10.9101182,6.52214614 C12.7242452,6.06770452 14.3847501,4.98403604 14.5097976,4.38755741 L14.5173447,4.31838993 L14.5173447,4.23196812 C14.4047864,3.84847133 12.3519368,3.48387931 9.84885395,3.48387931 Z" id="Shape" fill="#FFFFFF"></path>
    </g>
</svg>